<svg xmlns="http://www.w3.org/2000/svg" viewBox="0 0 200 40" fill="none">
  <g fill="#8A6A3E">
    <path d="M0 32L10.5 4h3.8L24.8 32h-3.6l-2.8-7.5H6.4L3.6 32H0zm7.5-10.5h10.8L13 8.2h-.2L7.5 21.5z"/>
    <path d="M30 4v18.5c0 3.2.5 5.2 1.6 6.2 1.1 1 2.8 1.5 5.2 1.5s4.1-.5 5.2-1.5c1.1-1 1.6-3 1.6-6.2V4h3.2v18.8c0 4.2-1 7.2-2.8 8.8-1.8 1.6-4.3 2.4-7.2 2.4s-5.4-.8-7.2-2.4C27.8 30 27 27 27 22.8V4h3z"/>
    <path d="M56 4h11.5c3.2 0 5.5.8 7 2.3 1.5 1.5 2.2 3.5 2.2 6 0 2.2-.6 4-1.8 5.3-1.2 1.3-2.8 2.2-4.8 2.5l7.5 11.9h-3.8L66.8 20.5H59V32h-3V4zm3 13.8h8.2c2.2 0 3.8-.5 4.8-1.5 1-.9 1.5-2.4 1.5-4.3 0-1.9-.5-3.3-1.5-4.2-1-1-2.6-1.5-4.8-1.5H59v11.5z"/>
    <path d="M84 4h17.5v3H87v9.5h13v3H87V29h15v3H84V4z"/>
    <path d="M118.5 2.8c3.5 0 6.3 1.3 8.5 3.8 2.2 2.5 3.2 5.8 3.2 10s-1.1 7.5-3.2 10c-2.2 2.5-5 3.8-8.5 3.8s-6.3-1.3-8.5-3.8c-2.2-2.5-3.2-5.8-3.2-10s1.1-7.5 3.2-10c2.2-2.5 5-3.8 8.5-3.8zm0 3c-2.5 0-4.5 1-6.2 3-1.6 2-2.5 4.8-2.5 8s.8 5.9 2.5 8c1.6 2 3.7 3 6.2 3s4.5-1 6.2-3c1.6-2 2.5-4.8 2.5-8s-.8-5.9-2.5-8c-1.6-2-3.7-3-6.2-3z"/>
    <path d="M138 4h3.2l14.5 23h.2V4h3V32h-3.2L141.2 9h-.2v23h-3V4z"/>
  </g>
  <rect x="0" y="37" width="160" height="0.5" fill="#C8A96A" opacity="0.4"/>
</svg>
